<?xml version="1.0" encoding="UTF-8" standalone="no"?>
<!-- Generated by graphviz version 2.38.0 (20140413.2041)
 -->

<!-- Title: StandardStreams Pages: 1 -->

<svg
   xmlns:dc="http://purl.org/dc/elements/1.1/"
   xmlns:cc="http://creativecommons.org/ns#"
   xmlns:rdf="http://www.w3.org/1999/02/22-rdf-syntax-ns#"
   xmlns:svg="http://www.w3.org/2000/svg"
   xmlns="http://www.w3.org/2000/svg"
   xmlns:sodipodi="http://sodipodi.sourceforge.net/DTD/sodipodi-0.dtd"
   xmlns:inkscape="http://www.inkscape.org/namespaces/inkscape"
   width="258pt"
   height="153pt"
   viewBox="0.00 0.00 258.39 153.00"
   id="svg3508"
   version="1.1"
   inkscape:version="0.91 r13725"
   sodipodi:docname="redirection_stderr.svg">
  <metadata
     id="metadata3574">
    <rdf:RDF>
      <cc:Work
         rdf:about="">
        <dc:format>image/svg+xml</dc:format>
        <dc:type
           rdf:resource="http://purl.org/dc/dcmitype/StillImage" />
        <dc:title></dc:title>
      </cc:Work>
    </rdf:RDF>
  </metadata>
  <defs
     id="defs3572">
    <marker
       inkscape:stockid="Arrow2Lend"
       orient="auto"
       refY="0.0"
       refX="0.0"
       id="Arrow2Lend"
       style="overflow:visible;"
       inkscape:isstock="true">
      <path
         id="path4479"
         style="fill-rule:evenodd;stroke-width:0.625;stroke-linejoin:round;stroke:#000000;stroke-opacity:1;fill:#000000;fill-opacity:1"
         d="M 8.7185878,4.0337352 L -2.2072895,0.016013256 L 8.7185884,-4.0017078 C 6.9730900,-1.6296469 6.9831476,1.6157441 8.7185878,4.0337352 z "
         transform="scale(1.1) rotate(180) translate(1,0)" />
    </marker>
    <marker
       inkscape:stockid="Arrow1Lend"
       orient="auto"
       refY="0.0"
       refX="0.0"
       id="Arrow1Lend"
       style="overflow:visible;"
       inkscape:isstock="true">
      <path
         id="path4461"
         d="M 0.0,0.0 L 5.0,-5.0 L -12.5,0.0 L 5.0,5.0 L 0.0,0.0 z "
         style="fill-rule:evenodd;stroke:#000000;stroke-width:1pt;stroke-opacity:1;fill:#000000;fill-opacity:1"
         transform="scale(0.8) rotate(180) translate(12.5,0)" />
    </marker>
    <marker
       inkscape:stockid="Arrow2Lend"
       orient="auto"
       refY="0"
       refX="0"
       id="Arrow2Lend-3"
       style="overflow:visible"
       inkscape:isstock="true">
      <path
         inkscape:connector-curvature="0"
         id="path4479-6"
         style="fill:#000000;fill-opacity:1;fill-rule:evenodd;stroke:#000000;stroke-width:0.625;stroke-linejoin:round;stroke-opacity:1"
         d="M 8.7185878,4.0337352 -2.2072895,0.01601326 8.7185884,-4.0017078 c -1.7454984,2.3720609 -1.7354408,5.6174519 -6e-7,8.035443 z"
         transform="matrix(-1.1,0,0,-1.1,-1.1,0)" />
    </marker>
    <marker
       inkscape:stockid="Arrow2Lend"
       orient="auto"
       refY="0"
       refX="0"
       id="Arrow2Lend-3-2"
       style="overflow:visible"
       inkscape:isstock="true">
      <path
         inkscape:connector-curvature="0"
         id="path4479-6-7"
         style="fill:#000000;fill-opacity:1;fill-rule:evenodd;stroke:#000000;stroke-width:0.625;stroke-linejoin:round;stroke-opacity:1"
         d="M 8.7185878,4.0337352 -2.2072895,0.01601326 8.7185884,-4.0017078 c -1.7454984,2.3720609 -1.7354408,5.6174519 -6e-7,8.035443 z"
         transform="matrix(-1.1,0,0,-1.1,-1.1,0)" />
    </marker>
    <marker
       inkscape:stockid="Arrow2Lend"
       orient="auto"
       refY="0"
       refX="0"
       id="Arrow2Lend-3-2-3"
       style="overflow:visible"
       inkscape:isstock="true">
      <path
         inkscape:connector-curvature="0"
         id="path4479-6-7-6"
         style="fill:#000000;fill-opacity:1;fill-rule:evenodd;stroke:#000000;stroke-width:0.625;stroke-linejoin:round;stroke-opacity:1"
         d="M 8.7185878,4.0337352 -2.2072895,0.01601326 8.7185884,-4.0017078 c -1.7454984,2.3720609 -1.7354408,5.6174519 -6e-7,8.035443 z"
         transform="matrix(-1.1,0,0,-1.1,-1.1,0)" />
    </marker>
    <marker
       inkscape:stockid="Arrow2Lend"
       orient="auto"
       refY="0"
       refX="0"
       id="Arrow2Lend-3-2-2"
       style="overflow:visible"
       inkscape:isstock="true">
      <path
         inkscape:connector-curvature="0"
         id="path4479-6-7-61"
         style="fill:#000000;fill-opacity:1;fill-rule:evenodd;stroke:#000000;stroke-width:0.625;stroke-linejoin:round;stroke-opacity:1"
         d="M 8.7185878,4.0337352 -2.2072895,0.01601326 8.7185884,-4.0017078 c -1.7454984,2.3720609 -1.7354408,5.6174519 -6e-7,8.035443 z"
         transform="matrix(-1.1,0,0,-1.1,-1.1,0)" />
    </marker>
  </defs>
  <sodipodi:namedview
     pagecolor="#ffffff"
     bordercolor="#666666"
     borderopacity="1"
     objecttolerance="10"
     gridtolerance="10"
     guidetolerance="10"
     inkscape:pageopacity="0"
     inkscape:pageshadow="2"
     inkscape:window-width="1596"
     inkscape:window-height="857"
     id="namedview3570"
     showgrid="false"
     inkscape:zoom="2"
     inkscape:cx="158.3558"
     inkscape:cy="71.93191"
     inkscape:window-x="0"
     inkscape:window-y="20"
     inkscape:window-maximized="0"
     inkscape:current-layer="graph0" />
  <g
     id="graph0"
     class="graph"
     transform="scale(1 1) rotate(0) translate(4 149)">
    <title
       id="title3511">StandardStreams</title>
    <g
       id="clust1"
       class="cluster">
      <title
         id="title3516">clusterTerminal</title>
      <polygon
         points="154.393,-8 154.393,-137 245.393,-137 245.393,-8 154.393,-8"
         id="polygon3518"
         stroke="lightgrey"
         fill="lightgrey" />
      <text
         x="199.89301"
         y="-121.8"
         font-size="14.00"
         id="text3520"
         style="font-size:14px;font-family:Times, serif;text-anchor:middle">Terminal</text>
    </g>
    <!-- Keyboard -->
    <g
       id="node1"
       class="node"
       transform="translate(-0.9659812,-11.913767)">
      <title
         id="title3523">Keyboard</title>
      <path
         d="m 222.393,-106 c 0,0 -46,0 -46,0 -6,0 -12,6 -12,12 0,0 0,12 0,12 0,6 6,12 12,12 0,0 46,0 46,0 6,0 12,-6 12,-12 0,0 0,-12 0,-12 0,-6 -6,-12 -12,-12"
         id="path3525"
         inkscape:connector-curvature="0"
         style="fill:#ffffff;stroke:#000000;stroke-width:2" />
      <text
         x="199.39301"
         y="-84.300003"
         font-size="14.00"
         id="text3527"
         style="font-size:14px;font-family:Times, serif;text-anchor:middle">Teclado</text>
    </g>
    <!-- Process -->
    <g
       id="node3"
       class="node"
       transform="translate(1.7417096,-13.465236)">
      <title
         id="title3530">Process</title>
      <ellipse
         cx="37.390072"
         cy="-50"
         rx="37.894299"
         ry="18"
         id="ellipse3532"
         style="fill:none;stroke:#000000" />
      <text
         x="37.696701"
         y="-46.299999"
         font-size="14.00"
         id="text3534"
         style="font-size:14px;font-family:Times, serif;text-anchor:middle">cat</text>
    </g>
    <!-- Keyboard&#45;&gt;Process -->
    <!-- Display -->
    <g
       id="node2"
       class="node"
       transform="matrix(0.84747667,0,0,0.84747667,29.946041,-35.775196)">
      <title
         id="title3546">Display</title>
      <path
         d="m 216.893,-52 c 0,0 -35,0 -35,0 -6,0 -12,6 -12,12 0,0 0,12 0,12 0,6 6,12 12,12 0,0 35,0 35,0 6,0 12,-6 12,-12 0,0 0,-12 0,-12 0,-6 -6,-12 -12,-12"
         id="path3548"
         inkscape:connector-curvature="0"
         style="fill:#ffffff;stroke:#000000;stroke-width:2" />
      <text
         x="199.39301"
         y="-30.299999"
         font-size="14.00"
         id="text3550"
         style="font-size:14px;font-family:Times, serif;text-anchor:middle">Monitor</text>
    </g>
    <!-- Process&#45;&gt;Display -->
    <!-- Process&#45;&gt;Display -->
    <path
       style="fill:none;fill-rule:evenodd;stroke:#000000;stroke-width:0.80120939px;stroke-linecap:butt;stroke-linejoin:miter;stroke-opacity:1;marker-end:url(#Arrow2Lend)"
       d="M 152.81228,-86.470198 C 98.798481,-117.91216 75.450578,-96.661392 44.658004,-82.490231"
       id="path4452"
       inkscape:connector-curvature="0"
       sodipodi:nodetypes="cc" />
    <text
       x="104.79744"
       y="-63.361679"
       font-size="14.00"
       id="text3534-2-9-1-9"
       style="font-size:10.94587231px;font-family:Times, serif;text-anchor:middle">#1 stdout</text>
    <path
       style="fill:none;fill-rule:evenodd;stroke:#000000;stroke-width:0.80120939px;stroke-linecap:butt;stroke-linejoin:miter;stroke-opacity:1;marker-end:url(#Arrow2Lend-3-2-3)"
       d="m 66.504574,-51.169079 c 39.709386,1.171653 45.736166,-12.549709 86.616316,-11.407165"
       id="path4452-7-0-0"
       inkscape:connector-curvature="0"
       sodipodi:nodetypes="cc" />
    <path
       style="fill:none;fill-rule:evenodd;stroke:#000000;stroke-width:0.80120939px;stroke-linecap:butt;stroke-linejoin:miter;stroke-opacity:1;marker-end:url(#Arrow2Lend-3-2-2)"
       d="m 35.770974,-46.197318 c 18.283632,34.408371 56.896178,21.293434 116.239756,24.334131"
       id="path4452-7-0-8"
       inkscape:connector-curvature="0"
       sodipodi:nodetypes="cc" />
    <text
       x="95.463127"
       y="-23.756453"
       font-size="14.00"
       id="text3534-2-9-1-6-7"
       style="font-size:10.94587231px;font-family:Times, serif;text-anchor:middle">#2 stderr</text>
    <text
       x="92.239677"
       y="-105.22085"
       font-size="14.00"
       id="text3534-2-9-1-92"
       style="font-size:10.94587231px;font-family:Times, serif;text-anchor:middle">#0 stdin</text>
    <g
       id="node2-3"
       class="node"
       transform="translate(-0.85895433,4.9502921)">
      <title
         id="title3546-6">Display</title>
      <path
         d="m 216.893,-52 c 0,0 -35,0 -35,0 -6,0 -12,6 -12,12 0,0 0,12 0,12 0,6 6,12 12,12 0,0 35,0 35,0 6,0 12,-6 12,-12 0,0 0,-12 0,-12 0,-6 -6,-12 -12,-12"
         id="path3548-7"
         inkscape:connector-curvature="0"
         style="fill:#ffffff;stroke:#000000;stroke-width:2" />
      <text
         x="199.39301"
         y="-30.299999"
         font-size="14.00"
         id="text3550-5"
         style="font-size:14px;font-family:Times, serif;text-anchor:middle">Arquivo</text>
    </g>
  </g>
</svg>
