<?xml version="1.0" encoding="UTF-8" standalone="no"?>
<!-- Generated by graphviz version 2.38.0 (20140413.2041)
 -->

<!-- Title: StandardStreams Pages: 1 -->

<svg
   xmlns:dc="http://purl.org/dc/elements/1.1/"
   xmlns:cc="http://creativecommons.org/ns#"
   xmlns:rdf="http://www.w3.org/1999/02/22-rdf-syntax-ns#"
   xmlns:svg="http://www.w3.org/2000/svg"
   xmlns="http://www.w3.org/2000/svg"
   xmlns:sodipodi="http://sodipodi.sourceforge.net/DTD/sodipodi-0.dtd"
   xmlns:inkscape="http://www.inkscape.org/namespaces/inkscape"
   width="258pt"
   height="153pt"
   viewBox="0.00 0.00 258.39 153.00"
   id="svg3508"
   version="1.1"
   inkscape:version="0.91 r13725"
   sodipodi:docname="standard_outputs.svg">
  <metadata
     id="metadata3574">
    <rdf:RDF>
      <cc:Work
         rdf:about="">
        <dc:format>image/svg+xml</dc:format>
        <dc:type
           rdf:resource="http://purl.org/dc/dcmitype/StillImage" />
      </cc:Work>
    </rdf:RDF>
  </metadata>
  <defs
     id="defs3572" />
  <sodipodi:namedview
     pagecolor="#ffffff"
     bordercolor="#666666"
     borderopacity="1"
     objecttolerance="10"
     gridtolerance="10"
     guidetolerance="10"
     inkscape:pageopacity="0"
     inkscape:pageshadow="2"
     inkscape:window-width="1596"
     inkscape:window-height="857"
     id="namedview3570"
     showgrid="false"
     inkscape:zoom="3.5189542"
     inkscape:cx="161.25"
     inkscape:cy="95.625"
     inkscape:window-x="0"
     inkscape:window-y="20"
     inkscape:window-maximized="0"
     inkscape:current-layer="graph0" />
  <g
     id="graph0"
     class="graph"
     transform="scale(1 1) rotate(0) translate(4 149)">
    <title
       id="title3511">StandardStreams</title>
    <polygon
       fill="white"
       stroke="none"
       points="-4,4 -4,-149 254.393,-149 254.393,4 -4,4"
       id="polygon3513" />
    <g
       id="clust1"
       class="cluster">
      <title
         id="title3516">clusterTerminal</title>
      <polygon
         fill="lightgrey"
         stroke="lightgrey"
         points="154.393,-8 154.393,-137 245.393,-137 245.393,-8 154.393,-8"
         id="polygon3518" />
      <text
         x="199.89301"
         y="-121.8"
         font-size="14.00"
         id="text3520"
         style="font-size:14px;font-family:Times, serif;text-anchor:middle">Terminal</text>
    </g>
    <!-- Keyboard -->
    <g
       id="node1"
       class="node">
      <title
         id="title3523">Keyboard</title>
      <path
         fill="white"
         stroke="black"
         stroke-width="2"
         d="M222.393,-106C222.393,-106 176.393,-106 176.393,-106 170.393,-106 164.393,-100 164.393,-94 164.393,-94 164.393,-82 164.393,-82 164.393,-76 170.393,-70 176.393,-70 176.393,-70 222.393,-70 222.393,-70 228.393,-70 234.393,-76 234.393,-82 234.393,-82 234.393,-94 234.393,-94 234.393,-100 228.393,-106 222.393,-106"
         id="path3525" />
      <text
         x="199.39301"
         y="-84.300003"
         font-size="14.00"
         id="text3527"
         style="font-size:14px;font-family:Times, serif;text-anchor:middle">Teclado</text>
    </g>
    <!-- Process -->
    <g
       id="node3"
       class="node">
      <title
         id="title3530">Process</title>
      <ellipse
         fill="none"
         stroke="black"
         cx="37.6967"
         cy="-50"
         rx="37.8943"
         ry="18"
         id="ellipse3532" />
      <text
         x="37.696701"
         y="-46.299999"
         font-size="14.00"
         id="text3534"
         style="font-size:14px;font-family:Times, serif;text-anchor:middle">Processo</text>
    </g>
    <!-- Keyboard&#45;&gt;Process -->
    <g
       id="edge1"
       class="edge">
      <title
         id="title3537">Keyboard-&gt;Process</title>
      <path
         fill="none"
         stroke="black"
         d="M164.294,-80.4402C143.727,-75.8222 117.019,-69.7227 93.3933,-64 89.3207,-63.0135 85.083,-61.9661 80.8489,-60.9056"
         id="path3539" />
      <polygon
         fill="black"
         stroke="black"
         points="81.608,-57.4875 71.0552,-58.4299 79.8925,-64.274 81.608,-57.4875"
         id="polygon3541" />
      <text
         text-anchor="middle"
         x="118.893"
         y="-79.8"
         font-family="Times,serif"
         font-size="14.00"
         id="text3543">#0 stdin</text>
    </g>
    <!-- Display -->
    <g
       id="node2"
       class="node">
      <title
         id="title3546">Display</title>
      <path
         fill="white"
         stroke="black"
         stroke-width="2"
         d="M216.893,-52C216.893,-52 181.893,-52 181.893,-52 175.893,-52 169.893,-46 169.893,-40 169.893,-40 169.893,-28 169.893,-28 169.893,-22 175.893,-16 181.893,-16 181.893,-16 216.893,-16 216.893,-16 222.893,-16 228.893,-22 228.893,-28 228.893,-28 228.893,-40 228.893,-40 228.893,-46 222.893,-52 216.893,-52"
         id="path3548" />
      <text
         x="199.39301"
         y="-30.299999"
         font-size="14.00"
         id="text3550"
         style="font-size:14px;font-family:Times, serif;text-anchor:middle">Monitor</text>
    </g>
    <!-- Process&#45;&gt;Display -->
    <g
       id="edge2"
       class="edge">
      <title
         id="title3553">Process-&gt;Display</title>
      <path
         fill="none"
         stroke="black"
         d="M74.9343,-46.3694C100.169,-43.841 133.788,-40.4728 159.571,-37.8896"
         id="path3555" />
      <polygon
         fill="black"
         stroke="black"
         points="160.138,-41.3504 169.739,-36.8709 159.44,-34.3853 160.138,-41.3504"
         id="polygon3557" />
      <text
         text-anchor="middle"
         x="118.893"
         y="-48.8"
         font-family="Times,serif"
         font-size="14.00"
         id="text3559">#1 stdout</text>
    </g>
    <!-- Process&#45;&gt;Display -->
    <g
       id="edge3"
       class="edge">
      <title
         id="title3562">Process-&gt;Display</title>
      <path
         fill="none"
         stroke="black"
         d="M60.3183,-35.3996C69.9948,-29.7139 81.8156,-23.8794 93.3933,-21 114.948,-15.6393 139.567,-18.2434 159.546,-22.4839"
         id="path3564" />
      <polygon
         fill="black"
         stroke="black"
         points="158.996,-25.9496 169.531,-24.8171 160.589,-19.1333 158.996,-25.9496"
         id="polygon3566" />
      <text
         text-anchor="middle"
         x="118.893"
         y="-24.8"
         font-family="Times,serif"
         font-size="14.00"
         id="text3568">#2 stderr</text>
    </g>
  </g>
</svg>
